<svg width="1200" height="420" viewBox="0 0 1200 420" fill="none" xmlns="http://www.w3.org/2000/svg" role="img" aria-labelledby="title desc">
  <title id="title">gitbagHero 动森风个人主页头图</title>
  <desc id="desc">一张温暖羊皮纸质感的动森风 GitHub 个人主页头图，包含加长岛民卡、公告牌、云朵和海面元素。</desc>
  <defs>
    <radialGradient id="skyDotA" cx="0" cy="0" r="1" gradientUnits="userSpaceOnUse" gradientTransform="translate(248 120) rotate(90) scale(170 360)">
      <stop stop-color="#FDF7DD"/>
      <stop offset="1" stop-color="#DFF6ED"/>
    </radialGradient>
    <linearGradient id="sea" x1="0" y1="283" x2="1200" y2="420" gradientUnits="userSpaceOnUse">
      <stop stop-color="#AEE8D9"/>
      <stop offset="1" stop-color="#82D5BB"/>
    </linearGradient>
    <radialGradient id="dangoPink" cx="0" cy="0" r="1" gradientUnits="userSpaceOnUse" gradientTransform="translate(62 51) rotate(65) scale(80 95)">
      <stop stop-color="#FFE3F2"/>
      <stop offset="0.62" stop-color="#F8B9D8"/>
      <stop offset="1" stop-color="#F2A7C8"/>
    </radialGradient>
    <pattern id="dots" width="28" height="28" patternUnits="userSpaceOnUse">
      <circle cx="4" cy="4" r="1.6" fill="#19C8B9" opacity="0.16"/>
      <circle cx="18" cy="18" r="1.1" fill="#82D5BB" opacity="0.2"/>
    </pattern>
    <filter id="soft" x="-10%" y="-20%" width="120%" height="140%" color-interpolation-filters="sRGB">
      <feDropShadow dx="0" dy="8" stdDeviation="12" flood-color="#725D42" flood-opacity="0.14"/>
    </filter>
    <clipPath id="blob">
      <path d="M27.6 29.9C43.4 11.8 95.7 7 168.3 11.1C222 14.1 280.7 8.2 301.3 34.8C324.2 64.5 311.4 119.5 306.6 168.9C301.9 217.8 322 270.8 292 299.3C262.7 327.1 201 316.9 151.6 318.3C98.7 319.8 43.4 333 20.5 298.8C-2.3 264.9 17.5 211.3 14.7 161.4C11.8 109.3 3.7 57.3 27.6 29.9Z"/>
    </clipPath>
  </defs>

  <rect width="1200" height="420" rx="28" fill="#F8F8F0"/>
  <rect width="1200" height="420" rx="28" fill="url(#skyDotA)"/>
  <rect width="1200" height="420" rx="28" fill="url(#dots)"/>

  <path d="M0 300C104 256 180 302 266 276C364 246 435 214 539 255C647 297 737 285 837 248C943 209 1056 235 1200 207V420H0V300Z" fill="url(#sea)"/>
  <path d="M0 336C86 302 177 329 272 306C363 284 426 259 524 292C639 331 741 324 844 291C964 252 1061 273 1200 244V420H0V336Z" fill="#6FBA2C" opacity="0.28"/>

  <g opacity="0.9">
    <path d="M86 84C95 62 127 60 139 80C153 67 178 70 186 91C207 91 221 106 219 123H63C58 102 68 88 86 84Z" fill="white"/>
    <path d="M908 83C920 55 961 54 977 80C997 63 1030 68 1041 96C1068 96 1086 116 1082 138H878C872 112 884 88 908 83Z" fill="white" opacity="0.9"/>
    <path d="M689 47C698 28 725 28 736 46C750 34 773 38 780 57C799 57 812 72 809 88H667C663 68 673 51 689 47Z" fill="white" opacity="0.82"/>
  </g>

  <g transform="translate(64 78)" filter="url(#soft)">
    <path d="M34 0H396C414.8 0 430 15.2 430 34V238C430 256.8 414.8 272 396 272H34C15.2 272 0 256.8 0 238V34C0 15.2 15.2 0 34 0Z" fill="#F7F3DF" stroke="#C4B89E" stroke-width="3"/>
    <rect x="42" y="24" width="126" height="36" rx="18" fill="#F7CD67"/>
    <text x="105" y="48" text-anchor="middle" font-family="'Noto Sans SC', Nunito, Arial, sans-serif" font-size="18" font-weight="900" fill="#725D42">岛民卡</text>
    <circle cx="354" cy="42" r="10" fill="#19C8B9"/>
    <circle cx="382" cy="42" r="10" fill="#F8A6B2"/>

    <g transform="translate(44 86) scale(0.92)">
      <circle cx="66" cy="66" r="66" fill="#82D5BB"/>
      <circle cx="66" cy="66" r="58" fill="#FFFDF4" opacity="0.92"/>
      <ellipse cx="66" cy="116" rx="43" ry="8" fill="#725D42" opacity="0.14"/>
      <path d="M14 77C14 47 35 30 66 29C96 28 116 47 117 78C118 104 99 119 66 119C33 119 14 104 14 77Z" fill="url(#dangoPink)" stroke="#F1A4C2" stroke-width="2.5"/>
      <path d="M22 55C36 35 67 31 94 41" stroke="#FFE6F4" stroke-width="8" stroke-linecap="round" opacity="0.42"/>
      <ellipse cx="47" cy="66" rx="5.5" ry="18" fill="#1E1518"/>
      <ellipse cx="85" cy="66" rx="5.5" ry="18" fill="#1E1518"/>
      <circle cx="31" cy="78" r="13" fill="#F6A7C3" opacity="0.76"/>
      <circle cx="101" cy="78" r="13" fill="#F6A7C3" opacity="0.76"/>
      <circle cx="31" cy="78" r="17" fill="none" stroke="#E989AB" stroke-width="2" opacity="0.55"/>
      <circle cx="101" cy="78" r="17" fill="none" stroke="#E989AB" stroke-width="2" opacity="0.55"/>
      <path d="M66 88C65 99 65 108 66 117" stroke="#D98CA8" stroke-width="2.4" stroke-linecap="round" opacity="0.8"/>
    </g>

    <text x="296" y="116" text-anchor="middle" font-family="Nunito, 'Noto Sans SC', Arial, sans-serif" font-size="31" font-weight="900" fill="#794F27">gitbagHero</text>
    <text x="296" y="154" text-anchor="middle" font-family="'Noto Sans SC', Nunito, Arial, sans-serif" font-size="19" font-weight="800" fill="#725D42">开发者 / 创作者</text>
    <rect x="224" y="184" width="172" height="40" rx="20" fill="#19C8B9"/>
    <path d="M224 224H396" stroke="#BDAEA0" stroke-width="6" stroke-linecap="round"/>
    <text x="310" y="210" text-anchor="middle" font-family="'Noto Sans SC', Nunito, Arial, sans-serif" font-size="17" font-weight="900" fill="white">代码小岛</text>
  </g>

  <g transform="translate(570 80)">
    <g>
      <path d="M0 18H384C397.3 18 408 28.7 408 42V180C408 193.3 397.3 204 384 204H0V18Z" fill="#FDE4E8" stroke="#F8A6B2" stroke-width="3"/>
      <path d="M0 18H408V204H0V18Z" fill="url(#dots)" opacity="0.75"/>
      <path d="M0 18L-28 45L0 72V18Z" fill="#E06880"/>
      <path d="M408 18L436 45L408 72V18Z" fill="#E06880"/>
      <rect x="30" y="0" width="348" height="58" rx="12" fill="#27D039"/>
      <path d="M30 58L5 78H30V58Z" fill="#115017"/>
      <path d="M378 58L403 78H378V58Z" fill="#115017"/>
      <text x="204" y="38" text-anchor="middle" font-family="'Noto Sans SC', Nunito, Arial, sans-serif" font-size="22" font-weight="900" fill="white">欢迎来到代码小岛</text>
      <text x="36" y="104" font-family="'Noto Sans SC', Nunito, Arial, sans-serif" font-size="28" font-weight="900" fill="#794F27">把想法做成产品</text>
      <text x="36" y="140" font-family="'Noto Sans SC', Nunito, Arial, sans-serif" font-size="18" font-weight="700" fill="#725D42">界面要温暖，代码要清楚。</text>
      <text x="36" y="170" font-family="'Noto Sans SC', Nunito, Arial, sans-serif" font-size="16" font-weight="700" fill="#8A7B66">前端 / 工具 / AI 辅助开发</text>
    </g>
  </g>

  <g transform="translate(578 302)">
    <ellipse cx="28" cy="54" rx="54" ry="16" fill="#725D42" opacity="0.12"/>
    <path d="M22 11C37 -4 64 2 73 23C88 21 102 32 101 48C100 66 82 75 61 70C47 88 16 82 10 59C-8 51 -2 22 22 11Z" fill="#F7CD67" stroke="#D4A030" stroke-width="4"/>
    <path d="M29 33C43 24 63 29 71 44" stroke="#725D42" stroke-width="5" stroke-linecap="round"/>
    <circle cx="34" cy="47" r="4" fill="#725D42"/>
    <circle cx="68" cy="47" r="4" fill="#725D42"/>
  </g>
</svg>
