<svg width="420" height="170" viewBox="0 0 420 170" fill="none" xmlns="http://www.w3.org/2000/svg" role="img" aria-labelledby="title desc">
  <title id="title">NookPhone 状态总览</title>
  <desc id="desc">动森风状态卡片，展示 gitbagHero 当前关注的开发方向。</desc>
  <defs>
    <pattern id="dots" width="24" height="24" patternUnits="userSpaceOnUse">
      <circle cx="5" cy="5" r="1.4" fill="#19C8B9" opacity="0.16"/>
      <circle cx="17" cy="17" r="1" fill="#82D5BB" opacity="0.18"/>
    </pattern>
  </defs>
  <rect x="2" y="2" width="416" height="166" rx="22" fill="#F7F3DF" stroke="#C4B89E" stroke-width="3"/>
  <rect x="2" y="2" width="416" height="166" rx="22" fill="url(#dots)"/>
  <rect x="28" y="22" width="150" height="34" rx="17" fill="#19C8B9"/>
  <text x="103" y="44" text-anchor="middle" font-family="'Noto Sans SC', Nunito, Arial, sans-serif" font-size="16" font-weight="900" fill="white">状态总览</text>
  <text x="30" y="83" font-family="'Noto Sans SC', Nunito, Arial, sans-serif" font-size="20" font-weight="900" fill="#794F27">把小想法做成可用产品</text>
  <text x="30" y="112" font-family="'Noto Sans SC', Nunito, Arial, sans-serif" font-size="14" font-weight="700" fill="#725D42">关注前端体验、效率工具和 AI 辅助开发。</text>
  <g transform="translate(30 132)">
    <rect width="92" height="24" rx="12" fill="#F7CD67"/>
    <rect x="104" width="92" height="24" rx="12" fill="#82D5BB"/>
    <rect x="208" width="112" height="24" rx="12" fill="#F8A6B2"/>
    <text x="46" y="17" text-anchor="middle" font-family="'Noto Sans SC', Nunito, Arial, sans-serif" font-size="12" font-weight="900" fill="#725D42">产品感</text>
    <text x="150" y="17" text-anchor="middle" font-family="'Noto Sans SC', Nunito, Arial, sans-serif" font-size="12" font-weight="900" fill="white">工程化</text>
    <text x="264" y="17" text-anchor="middle" font-family="'Noto Sans SC', Nunito, Arial, sans-serif" font-size="12" font-weight="900" fill="white">持续学习</text>
  </g>
  <g transform="translate(335 28)">
    <circle cx="38" cy="38" r="38" fill="#82D5BB"/>
    <circle cx="38" cy="33" r="20" fill="#FDF0C8"/>
    <path d="M14 72C19 54 29 48 38 48C48 48 59 56 64 72H14Z" fill="#9A835A"/>
    <path d="M25 29C31 15 50 15 56 29C49 23 32 23 25 29Z" fill="#794F27"/>
    <circle cx="30" cy="36" r="2.8" fill="#725D42"/>
    <circle cx="47" cy="36" r="2.8" fill="#725D42"/>
    <path d="M33 45C38 49 43 49 48 45" stroke="#725D42" stroke-width="3" stroke-linecap="round"/>
  </g>
</svg>
