<svg width="420" height="170" viewBox="0 0 420 170" fill="none" xmlns="http://www.w3.org/2000/svg" role="img" aria-labelledby="title desc">
  <title id="title">NookPhone 状态总览</title>
  <desc id="desc">动森风状态卡片，展示 gitbagHero 当前关注的开发方向。</desc>
  <defs>
    <radialGradient id="dangoPink" cx="0" cy="0" r="1" gradientUnits="userSpaceOnUse" gradientTransform="translate(37 31) rotate(65) scale(45 54)">
      <stop stop-color="#FFE3F2"/>
      <stop offset="0.62" stop-color="#F8B9D8"/>
      <stop offset="1" stop-color="#F2A7C8"/>
    </radialGradient>
    <pattern id="dots" width="24" height="24" patternUnits="userSpaceOnUse">
      <circle cx="5" cy="5" r="1.4" fill="#19C8B9" opacity="0.16"/>
      <circle cx="17" cy="17" r="1" fill="#82D5BB" opacity="0.18"/>
    </pattern>
  </defs>
  <rect x="2" y="2" width="416" height="166" rx="22" fill="#F7F3DF" stroke="#C4B89E" stroke-width="3"/>
  <rect x="2" y="2" width="416" height="166" rx="22" fill="url(#dots)"/>
  <rect x="28" y="22" width="150" height="34" rx="17" fill="#19C8B9"/>
  <text x="103" y="44" text-anchor="middle" font-family="'Noto Sans SC', Nunito, Arial, sans-serif" font-size="16" font-weight="900" fill="white">状态总览</text>
  <text x="30" y="83" font-family="'Noto Sans SC', Nunito, Arial, sans-serif" font-size="20" font-weight="900" fill="#794F27">把小想法做成可用产品</text>
  <text x="30" y="112" font-family="'Noto Sans SC', Nunito, Arial, sans-serif" font-size="14" font-weight="700" fill="#725D42">关注前端体验、效率工具和 AI 辅助开发。</text>
  <g transform="translate(30 132)">
    <rect width="92" height="24" rx="12" fill="#F7CD67"/>
    <rect x="104" width="92" height="24" rx="12" fill="#82D5BB"/>
    <rect x="208" width="112" height="24" rx="12" fill="#F8A6B2"/>
    <text x="46" y="17" text-anchor="middle" font-family="'Noto Sans SC', Nunito, Arial, sans-serif" font-size="12" font-weight="900" fill="#725D42">产品感</text>
    <text x="150" y="17" text-anchor="middle" font-family="'Noto Sans SC', Nunito, Arial, sans-serif" font-size="12" font-weight="900" fill="white">工程化</text>
    <text x="264" y="17" text-anchor="middle" font-family="'Noto Sans SC', Nunito, Arial, sans-serif" font-size="12" font-weight="900" fill="white">持续学习</text>
  </g>
  <g transform="translate(335 28)">
    <circle cx="38" cy="38" r="38" fill="#82D5BB"/>
    <circle cx="38" cy="38" r="33" fill="#FFFDF4" opacity="0.92"/>
    <ellipse cx="38" cy="66" rx="24" ry="5" fill="#725D42" opacity="0.14"/>
    <path d="M8 43C8 26 20 16 38 16C55 16 66 26 67 44C68 59 57 67 38 67C19 67 8 59 8 43Z" fill="url(#dangoPink)" stroke="#F1A4C2" stroke-width="1.8"/>
    <path d="M16 31C24 21 42 18 56 24" stroke="#FFE6F4" stroke-width="5" stroke-linecap="round" opacity="0.42"/>
    <ellipse cx="27" cy="39" rx="3.2" ry="10" fill="#1E1518"/>
    <ellipse cx="49" cy="39" rx="3.2" ry="10" fill="#1E1518"/>
    <circle cx="17" cy="46" r="7.2" fill="#F6A7C3" opacity="0.76"/>
    <circle cx="58" cy="46" r="7.2" fill="#F6A7C3" opacity="0.76"/>
    <circle cx="17" cy="46" r="9.6" fill="none" stroke="#E989AB" stroke-width="1.4" opacity="0.55"/>
    <circle cx="58" cy="46" r="9.6" fill="none" stroke="#E989AB" stroke-width="1.4" opacity="0.55"/>
    <path d="M38 51C37 57 37 62 38 67" stroke="#D98CA8" stroke-width="1.6" stroke-linecap="round" opacity="0.8"/>
  </g>
</svg>
