<svg width="420" height="170" viewBox="0 0 420 170" fill="none" xmlns="http://www.w3.org/2000/svg" role="img" aria-labelledby="title desc">
  <title id="title">NookPhone 技术栈速览</title>
  <desc id="desc">动森风技术栈卡片，展示常用技术和方向。</desc>
  <defs>
    <pattern id="dots" width="24" height="24" patternUnits="userSpaceOnUse">
      <circle cx="5" cy="5" r="1.4" fill="#F8A6B2" opacity="0.16"/>
      <circle cx="17" cy="17" r="1" fill="#F7CD67" opacity="0.2"/>
    </pattern>
  </defs>
  <rect x="2" y="2" width="416" height="166" rx="22" fill="#FDE4E8" stroke="#F8A6B2" stroke-width="3"/>
  <rect x="2" y="2" width="416" height="166" rx="22" fill="url(#dots)"/>
  <rect x="28" y="22" width="150" height="34" rx="17" fill="#F7CD67"/>
  <text x="103" y="44" text-anchor="middle" font-family="'Noto Sans SC', Nunito, Arial, sans-serif" font-size="16" font-weight="900" fill="#725D42">技术栈速览</text>
  <g transform="translate(30 78)">
    <rect width="94" height="30" rx="15" fill="#F7CD67"/>
    <rect x="106" width="94" height="30" rx="15" fill="#889DF0"/>
    <rect x="212" width="82" height="30" rx="15" fill="#82D5BB"/>
    <rect y="42" width="86" height="30" rx="15" fill="#8AC68A"/>
    <rect x="98" y="42" width="86" height="30" rx="15" fill="#B77DEE"/>
    <rect x="196" y="42" width="92" height="30" rx="15" fill="#E59266"/>
    <text x="47" y="20" text-anchor="middle" font-family="Nunito, Arial, sans-serif" font-size="13" font-weight="900" fill="#725D42">JavaScript</text>
    <text x="153" y="20" text-anchor="middle" font-family="Nunito, Arial, sans-serif" font-size="13" font-weight="900" fill="white">TypeScript</text>
    <text x="253" y="20" text-anchor="middle" font-family="Nunito, Arial, sans-serif" font-size="13" font-weight="900" fill="white">React</text>
    <text x="43" y="62" text-anchor="middle" font-family="Nunito, Arial, sans-serif" font-size="13" font-weight="900" fill="white">Node.js</text>
    <text x="141" y="62" text-anchor="middle" font-family="Nunito, Arial, sans-serif" font-size="13" font-weight="900" fill="white">Python</text>
    <text x="242" y="62" text-anchor="middle" font-family="Nunito, Arial, sans-serif" font-size="13" font-weight="900" fill="white">Markdown</text>
  </g>
  <g transform="translate(324 28)">
    <circle cx="38" cy="38" r="38" fill="#F7CD67"/>
    <rect x="10" y="17" width="56" height="48" rx="12" fill="#F7F3DF" stroke="#D4A030" stroke-width="3"/>
    <rect x="16" y="25" width="44" height="29" rx="8" fill="#82D5BB"/>
    <circle cx="22" cy="59" r="3" fill="#19C8B9"/>
    <circle cx="32" cy="59" r="3" fill="#F8A6B2"/>
    <path d="M29 34L23 40L29 46" stroke="white" stroke-width="3" stroke-linecap="round" stroke-linejoin="round"/>
    <path d="M47 34L53 40L47 46" stroke="white" stroke-width="3" stroke-linecap="round" stroke-linejoin="round"/>
    <path d="M39 33L35 47" stroke="white" stroke-width="3" stroke-linecap="round"/>
    <path d="M26 9C34 4 45 5 52 12" stroke="#725D42" stroke-width="4" stroke-linecap="round" opacity="0.35"/>
  </g>
</svg>
